<svg xmlns="http://www.w3.org/2000/svg" viewBox="0 0 100 100" preserveAspectRatio="xMidYMid" width="217" height="217" style="shape-rendering: auto; display: block; background: transparent;" xmlns:xlink="http://www.w3.org/1999/xlink"><g><g transform="rotate(0 50 50)">
  <rect fill="#2b97fa" height="21" width="9" ry="10.5" rx="4.5" y="15.5" x="45.5">
    <animate repeatCount="indefinite" begin="-0.7451564828614009s" dur="0.819672131147541s" keyTimes="0;1" values="1;0" attributeName="opacity"></animate>
  </rect>
</g><g transform="rotate(32.72727272727273 50 50)">
  <rect fill="#000000" height="21" width="9" ry="10.5" rx="4.5" y="15.5" x="45.5">
    <animate repeatCount="indefinite" begin="-0.6706408345752608s" dur="0.819672131147541s" keyTimes="0;1" values="1;0" attributeName="opacity"></animate>
  </rect>
</g><g transform="rotate(65.45454545454545 50 50)">
  <rect fill="#242424" height="21" width="9" ry="10.5" rx="4.5" y="15.5" x="45.5">
    <animate repeatCount="indefinite" begin="-0.5961251862891207s" dur="0.819672131147541s" keyTimes="0;1" values="1;0" attributeName="opacity"></animate>
  </rect>
</g><g transform="rotate(98.18181818181819 50 50)">
  <rect fill="#e3e3e3" height="21" width="9" ry="10.5" rx="4.5" y="15.5" x="45.5">
    <animate repeatCount="indefinite" begin="-0.5216095380029806s" dur="0.819672131147541s" keyTimes="0;1" values="1;0" attributeName="opacity"></animate>
  </rect>
</g><g transform="rotate(130.9090909090909 50 50)">
  <rect fill="#6492ac" height="21" width="9" ry="10.5" rx="4.5" y="15.5" x="45.5">
    <animate repeatCount="indefinite" begin="-0.44709388971684055s" dur="0.819672131147541s" keyTimes="0;1" values="1;0" attributeName="opacity"></animate>
  </rect>
</g><g transform="rotate(163.63636363636363 50 50)">
  <rect fill="#2b97fa" height="21" width="9" ry="10.5" rx="4.5" y="15.5" x="45.5">
    <animate repeatCount="indefinite" begin="-0.37257824143070045s" dur="0.819672131147541s" keyTimes="0;1" values="1;0" attributeName="opacity"></animate>
  </rect>
</g><g transform="rotate(196.36363636363637 50 50)">
  <rect fill="#000000" height="21" width="9" ry="10.5" rx="4.5" y="15.5" x="45.5">
    <animate repeatCount="indefinite" begin="-0.29806259314456035s" dur="0.819672131147541s" keyTimes="0;1" values="1;0" attributeName="opacity"></animate>
  </rect>
</g><g transform="rotate(229.0909090909091 50 50)">
  <rect fill="#242424" height="21" width="9" ry="10.5" rx="4.5" y="15.5" x="45.5">
    <animate repeatCount="indefinite" begin="-0.22354694485842028s" dur="0.819672131147541s" keyTimes="0;1" values="1;0" attributeName="opacity"></animate>
  </rect>
</g><g transform="rotate(261.8181818181818 50 50)">
  <rect fill="#e3e3e3" height="21" width="9" ry="10.5" rx="4.5" y="15.5" x="45.5">
    <animate repeatCount="indefinite" begin="-0.14903129657228018s" dur="0.819672131147541s" keyTimes="0;1" values="1;0" attributeName="opacity"></animate>
  </rect>
</g><g transform="rotate(294.54545454545456 50 50)">
  <rect fill="#6492ac" height="21" width="9" ry="10.5" rx="4.5" y="15.5" x="45.5">
    <animate repeatCount="indefinite" begin="-0.07451564828614009s" dur="0.819672131147541s" keyTimes="0;1" values="1;0" attributeName="opacity"></animate>
  </rect>
</g><g transform="rotate(327.27272727272725 50 50)">
  <rect fill="#2b97fa" height="21" width="9" ry="10.5" rx="4.5" y="15.5" x="45.5">
    <animate repeatCount="indefinite" begin="0s" dur="0.819672131147541s" keyTimes="0;1" values="1;0" attributeName="opacity"></animate>
  </rect>
</g><g></g></g><!-- [ldio] generated by https://loading.io --></svg>