<svg id="visual" viewBox="0 0 900 600" width="900" height="600" xmlns="http://www.w3.org/2000/svg" xmlns:xlink="http://www.w3.org/1999/xlink" version="1.1"><g transform="translate(427.59496572702716 315.8126620236402)"><path d="M141.3 -198.1C198.2 -183.4 269.6 -169.6 305.1 -128.6C340.6 -87.6 340 -19.4 318.7 37.4C297.4 94.1 255.3 139.4 210.6 172C166 204.7 118.9 224.7 71.1 236C23.2 247.2 -25.4 249.8 -69.7 237C-113.9 224.1 -153.7 195.9 -190.7 160.9C-227.6 125.9 -261.8 84.2 -277.8 34.3C-293.7 -15.7 -291.5 -73.9 -275.5 -132.9C-259.5 -191.8 -229.8 -251.5 -181.6 -270.2C-133.4 -288.8 -66.7 -266.4 -12.2 -247.4C42.2 -228.4 84.5 -212.8 141.3 -198.1" fill="#2B97FA"></path></g></svg>